<mxfile host="app.diagrams.net" agent="Mozilla/5.0 (Macintosh; Intel Mac OS X 10_15_7) AppleWebKit/537.36 (KHTML, like Gecko) Chrome/134.0.0.0 Safari/537.36" version="27.1.6">
  <diagram name="Page-1" id="T-Qfl7UuANzPY8y2qyfH">
    <mxGraphModel dx="929" dy="1635" grid="1" gridSize="10" guides="1" tooltips="1" connect="1" arrows="1" fold="1" page="1" pageScale="1" pageWidth="850" pageHeight="1100" math="0" shadow="0">
      <root>
        <mxCell id="0" />
        <mxCell id="1" parent="0" />
        <mxCell id="RUT8C2a_-3nLD0fSih08-14" value="crm_cust_info" style="swimlane;fontStyle=0;childLayout=stackLayout;horizontal=1;startSize=30;horizontalStack=0;resizeParent=1;resizeParentMax=0;resizeLast=0;collapsible=1;marginBottom=0;whiteSpace=wrap;html=1;fillColor=#dae8fc;strokeColor=#6c8ebf;fontSize=16;" vertex="1" parent="1">
          <mxGeometry x="260" y="290" width="140" height="80" as="geometry" />
        </mxCell>
        <mxCell id="RUT8C2a_-3nLD0fSih08-15" value="cst_id" style="text;strokeColor=none;fillColor=none;align=left;verticalAlign=middle;spacingLeft=4;spacingRight=4;overflow=hidden;points=[[0,0.5],[1,0.5]];portConstraint=eastwest;rotatable=0;whiteSpace=wrap;html=1;fontSize=16;" vertex="1" parent="RUT8C2a_-3nLD0fSih08-14">
          <mxGeometry y="30" width="140" height="20" as="geometry" />
        </mxCell>
        <mxCell id="RUT8C2a_-3nLD0fSih08-35" value="cst_key" style="text;strokeColor=none;fillColor=none;align=left;verticalAlign=middle;spacingLeft=4;spacingRight=4;overflow=hidden;points=[[0,0.5],[1,0.5]];portConstraint=eastwest;rotatable=0;whiteSpace=wrap;html=1;fontSize=16;" vertex="1" parent="RUT8C2a_-3nLD0fSih08-14">
          <mxGeometry y="50" width="140" height="30" as="geometry" />
        </mxCell>
        <mxCell id="RUT8C2a_-3nLD0fSih08-18" value="Customer Information" style="rounded=0;whiteSpace=wrap;html=1;dashed=1;dashPattern=1 4;" vertex="1" parent="1">
          <mxGeometry x="265" y="260" width="130" height="30" as="geometry" />
        </mxCell>
        <mxCell id="RUT8C2a_-3nLD0fSih08-19" value="crm_prd_info" style="swimlane;fontStyle=0;childLayout=stackLayout;horizontal=1;startSize=30;horizontalStack=0;resizeParent=1;resizeParentMax=0;resizeLast=0;collapsible=1;marginBottom=0;whiteSpace=wrap;html=1;fillColor=#dae8fc;strokeColor=#6c8ebf;fontSize=16;" vertex="1" parent="1">
          <mxGeometry x="260" y="130" width="140" height="60" as="geometry" />
        </mxCell>
        <mxCell id="RUT8C2a_-3nLD0fSih08-20" value="prd_key" style="text;strokeColor=none;fillColor=none;align=left;verticalAlign=middle;spacingLeft=4;spacingRight=4;overflow=hidden;points=[[0,0.5],[1,0.5]];portConstraint=eastwest;rotatable=0;whiteSpace=wrap;html=1;fontSize=16;" vertex="1" parent="RUT8C2a_-3nLD0fSih08-19">
          <mxGeometry y="30" width="140" height="30" as="geometry" />
        </mxCell>
        <mxCell id="RUT8C2a_-3nLD0fSih08-21" value="Current &amp;amp; Historical product Information" style="rounded=0;whiteSpace=wrap;html=1;dashed=1;dashPattern=1 4;" vertex="1" parent="1">
          <mxGeometry x="260" y="100" width="160" height="30" as="geometry" />
        </mxCell>
        <mxCell id="RUT8C2a_-3nLD0fSih08-23" value="crm_sales_details" style="swimlane;fontStyle=0;childLayout=stackLayout;horizontal=1;startSize=30;horizontalStack=0;resizeParent=1;resizeParentMax=0;resizeLast=0;collapsible=1;marginBottom=0;whiteSpace=wrap;html=1;fillColor=#dae8fc;strokeColor=#6c8ebf;fontSize=16;" vertex="1" parent="1">
          <mxGeometry x="50" y="180" width="130" height="90" as="geometry" />
        </mxCell>
        <mxCell id="RUT8C2a_-3nLD0fSih08-24" value="prd_key" style="text;strokeColor=none;fillColor=none;align=left;verticalAlign=middle;spacingLeft=4;spacingRight=4;overflow=hidden;points=[[0,0.5],[1,0.5]];portConstraint=eastwest;rotatable=0;whiteSpace=wrap;html=1;fontSize=16;" vertex="1" parent="RUT8C2a_-3nLD0fSih08-23">
          <mxGeometry y="30" width="130" height="30" as="geometry" />
        </mxCell>
        <mxCell id="RUT8C2a_-3nLD0fSih08-25" value="cst_id" style="text;strokeColor=none;fillColor=none;align=left;verticalAlign=middle;spacingLeft=4;spacingRight=4;overflow=hidden;points=[[0,0.5],[1,0.5]];portConstraint=eastwest;rotatable=0;whiteSpace=wrap;html=1;fontSize=16;" vertex="1" parent="RUT8C2a_-3nLD0fSih08-23">
          <mxGeometry y="60" width="130" height="30" as="geometry" />
        </mxCell>
        <mxCell id="RUT8C2a_-3nLD0fSih08-27" value="Current &amp;amp; Historical product Information" style="rounded=0;whiteSpace=wrap;html=1;dashed=1;dashPattern=1 4;" vertex="1" parent="1">
          <mxGeometry x="35" y="150" width="160" height="30" as="geometry" />
        </mxCell>
        <mxCell id="RUT8C2a_-3nLD0fSih08-33" value="erp_cust_az12" style="swimlane;fontStyle=0;childLayout=stackLayout;horizontal=1;startSize=30;horizontalStack=0;resizeParent=1;resizeParentMax=0;resizeLast=0;collapsible=1;marginBottom=0;whiteSpace=wrap;html=1;fillColor=#fff2cc;strokeColor=#d6b656;fontSize=16;" vertex="1" parent="1">
          <mxGeometry x="565" y="250" width="155" height="50" as="geometry" />
        </mxCell>
        <mxCell id="RUT8C2a_-3nLD0fSih08-34" value="cid" style="text;strokeColor=none;fillColor=none;align=left;verticalAlign=middle;spacingLeft=4;spacingRight=4;overflow=hidden;points=[[0,0.5],[1,0.5]];portConstraint=eastwest;rotatable=0;whiteSpace=wrap;html=1;fontSize=16;" vertex="1" parent="RUT8C2a_-3nLD0fSih08-33">
          <mxGeometry y="30" width="155" height="20" as="geometry" />
        </mxCell>
        <mxCell id="RUT8C2a_-3nLD0fSih08-36" value="Additional customer info(Birth date)" style="rounded=0;whiteSpace=wrap;html=1;dashed=1;dashPattern=1 4;" vertex="1" parent="1">
          <mxGeometry x="570" y="220" width="130" height="30" as="geometry" />
        </mxCell>
        <mxCell id="RUT8C2a_-3nLD0fSih08-37" value="Text" style="text;html=1;align=center;verticalAlign=middle;resizable=0;points=[];autosize=1;strokeColor=none;fillColor=none;" vertex="1" parent="1">
          <mxGeometry x="375" y="-162" width="50" height="30" as="geometry" />
        </mxCell>
        <mxCell id="RUT8C2a_-3nLD0fSih08-39" value="erp_loc_a101" style="swimlane;fontStyle=0;childLayout=stackLayout;horizontal=1;startSize=30;horizontalStack=0;resizeParent=1;resizeParentMax=0;resizeLast=0;collapsible=1;marginBottom=0;whiteSpace=wrap;html=1;fillColor=#fff2cc;strokeColor=#d6b656;fontSize=16;" vertex="1" parent="1">
          <mxGeometry x="560" y="370" width="160" height="50" as="geometry" />
        </mxCell>
        <mxCell id="RUT8C2a_-3nLD0fSih08-40" value="cid" style="text;strokeColor=none;fillColor=none;align=left;verticalAlign=middle;spacingLeft=4;spacingRight=4;overflow=hidden;points=[[0,0.5],[1,0.5]];portConstraint=eastwest;rotatable=0;whiteSpace=wrap;html=1;fontSize=16;" vertex="1" parent="RUT8C2a_-3nLD0fSih08-39">
          <mxGeometry y="30" width="160" height="20" as="geometry" />
        </mxCell>
        <mxCell id="RUT8C2a_-3nLD0fSih08-41" value="Location of customers(country)" style="rounded=0;whiteSpace=wrap;html=1;dashed=1;dashPattern=1 4;" vertex="1" parent="1">
          <mxGeometry x="565" y="340" width="130" height="30" as="geometry" />
        </mxCell>
        <mxCell id="RUT8C2a_-3nLD0fSih08-42" value="erp_px_cat_g1v2" style="swimlane;fontStyle=0;childLayout=stackLayout;horizontal=1;startSize=30;horizontalStack=0;resizeParent=1;resizeParentMax=0;resizeLast=0;collapsible=1;marginBottom=0;whiteSpace=wrap;html=1;fillColor=#fff2cc;strokeColor=#d6b656;fontSize=16;" vertex="1" parent="1">
          <mxGeometry x="575" y="110" width="140" height="50" as="geometry" />
        </mxCell>
        <mxCell id="RUT8C2a_-3nLD0fSih08-43" value="id" style="text;strokeColor=none;fillColor=none;align=left;verticalAlign=middle;spacingLeft=4;spacingRight=4;overflow=hidden;points=[[0,0.5],[1,0.5]];portConstraint=eastwest;rotatable=0;whiteSpace=wrap;html=1;fontSize=16;" vertex="1" parent="RUT8C2a_-3nLD0fSih08-42">
          <mxGeometry y="30" width="140" height="20" as="geometry" />
        </mxCell>
        <mxCell id="RUT8C2a_-3nLD0fSih08-44" style="edgeStyle=orthogonalEdgeStyle;rounded=0;orthogonalLoop=1;jettySize=auto;html=1;entryX=0;entryY=0.5;entryDx=0;entryDy=0;" edge="1" parent="1" source="RUT8C2a_-3nLD0fSih08-20" target="RUT8C2a_-3nLD0fSih08-43">
          <mxGeometry relative="1" as="geometry">
            <mxPoint x="510" y="120" as="targetPoint" />
          </mxGeometry>
        </mxCell>
        <mxCell id="RUT8C2a_-3nLD0fSih08-45" style="edgeStyle=orthogonalEdgeStyle;rounded=0;orthogonalLoop=1;jettySize=auto;html=1;exitX=1;exitY=0.5;exitDx=0;exitDy=0;entryX=-0.013;entryY=0.278;entryDx=0;entryDy=0;entryPerimeter=0;" edge="1" parent="1" source="RUT8C2a_-3nLD0fSih08-15" target="RUT8C2a_-3nLD0fSih08-34">
          <mxGeometry relative="1" as="geometry">
            <mxPoint x="520" y="280" as="targetPoint" />
          </mxGeometry>
        </mxCell>
        <mxCell id="RUT8C2a_-3nLD0fSih08-46" style="edgeStyle=orthogonalEdgeStyle;rounded=0;orthogonalLoop=1;jettySize=auto;html=1;entryX=0;entryY=0.5;entryDx=0;entryDy=0;" edge="1" parent="1" source="RUT8C2a_-3nLD0fSih08-35" target="RUT8C2a_-3nLD0fSih08-40">
          <mxGeometry relative="1" as="geometry">
            <mxPoint x="510" y="410" as="targetPoint" />
            <Array as="points">
              <mxPoint x="510" y="355" />
              <mxPoint x="510" y="410" />
              <mxPoint x="560" y="410" />
            </Array>
          </mxGeometry>
        </mxCell>
        <mxCell id="RUT8C2a_-3nLD0fSih08-47" value="Product Categories" style="rounded=0;whiteSpace=wrap;html=1;dashed=1;dashPattern=1 4;" vertex="1" parent="1">
          <mxGeometry x="580" y="80" width="130" height="30" as="geometry" />
        </mxCell>
        <mxCell id="RUT8C2a_-3nLD0fSih08-48" value="" style="rounded=1;whiteSpace=wrap;html=1;fillColor=none;" vertex="1" parent="1">
          <mxGeometry x="30" y="80" width="400" height="400" as="geometry" />
        </mxCell>
        <mxCell id="RUT8C2a_-3nLD0fSih08-49" value="" style="rounded=1;whiteSpace=wrap;html=1;fillColor=none;" vertex="1" parent="1">
          <mxGeometry x="450" y="80" width="360" height="400" as="geometry" />
        </mxCell>
        <mxCell id="RUT8C2a_-3nLD0fSih08-53" style="edgeStyle=orthogonalEdgeStyle;rounded=0;orthogonalLoop=1;jettySize=auto;html=1;exitX=1;exitY=0.5;exitDx=0;exitDy=0;entryX=0.002;entryY=-0.04;entryDx=0;entryDy=0;entryPerimeter=0;" edge="1" parent="1" source="RUT8C2a_-3nLD0fSih08-24" target="RUT8C2a_-3nLD0fSih08-20">
          <mxGeometry relative="1" as="geometry" />
        </mxCell>
        <mxCell id="RUT8C2a_-3nLD0fSih08-55" style="edgeStyle=orthogonalEdgeStyle;rounded=0;orthogonalLoop=1;jettySize=auto;html=1;entryX=0;entryY=0.5;entryDx=0;entryDy=0;" edge="1" parent="1" source="RUT8C2a_-3nLD0fSih08-25" target="RUT8C2a_-3nLD0fSih08-15">
          <mxGeometry relative="1" as="geometry" />
        </mxCell>
        <mxCell id="RUT8C2a_-3nLD0fSih08-56" value="CRM" style="text;html=1;align=center;verticalAlign=middle;whiteSpace=wrap;rounded=0;fillColor=#dae8fc;strokeColor=#6c8ebf;fontStyle=1;fontSize=14;" vertex="1" parent="1">
          <mxGeometry x="180" y="50" width="100" height="30" as="geometry" />
        </mxCell>
        <mxCell id="RUT8C2a_-3nLD0fSih08-57" value="ERP" style="text;html=1;align=center;verticalAlign=middle;whiteSpace=wrap;rounded=0;fillColor=#fff2cc;strokeColor=#d6b656;fontStyle=1;fontSize=14;" vertex="1" parent="1">
          <mxGeometry x="590" y="50" width="100" height="30" as="geometry" />
        </mxCell>
        <mxCell id="RUT8C2a_-3nLD0fSih08-58" value="Data Integration&amp;nbsp;" style="text;html=1;align=center;verticalAlign=middle;whiteSpace=wrap;rounded=0;fontSize=20;fillColor=#bac8d3;strokeColor=#23445d;fontStyle=1" vertex="1" parent="1">
          <mxGeometry x="250" width="330" height="30" as="geometry" />
        </mxCell>
        <mxCell id="RUT8C2a_-3nLD0fSih08-61" value="Product" style="rounded=1;align=center;fillColor=#fad9d5;strokeColor=#ae4132;html=1;whiteSpace=wrap;fontSize=16;" vertex="1" parent="1">
          <mxGeometry x="260" y="190" width="140" height="20" as="geometry" />
        </mxCell>
        <mxCell id="RUT8C2a_-3nLD0fSih08-62" value="Product" style="rounded=1;align=center;fillColor=#fad9d5;strokeColor=#ae4132;html=1;whiteSpace=wrap;fontSize=16;" vertex="1" parent="1">
          <mxGeometry x="575" y="160" width="140" height="20" as="geometry" />
        </mxCell>
        <mxCell id="RUT8C2a_-3nLD0fSih08-63" value="Sales" style="rounded=1;align=center;fillColor=#d0cee2;strokeColor=#56517e;html=1;whiteSpace=wrap;fontSize=16;" vertex="1" parent="1">
          <mxGeometry x="50" y="270" width="130" height="20" as="geometry" />
        </mxCell>
        <mxCell id="RUT8C2a_-3nLD0fSih08-64" value="Customer" style="rounded=1;align=center;fillColor=#d5e8d4;strokeColor=#82b366;html=1;whiteSpace=wrap;fontSize=16;gradientColor=#97d077;" vertex="1" parent="1">
          <mxGeometry x="260" y="370" width="140" height="20" as="geometry" />
        </mxCell>
        <mxCell id="RUT8C2a_-3nLD0fSih08-65" value="Customer" style="rounded=1;align=center;fillColor=#d5e8d4;strokeColor=#82b366;html=1;whiteSpace=wrap;fontSize=16;gradientColor=#97d077;" vertex="1" parent="1">
          <mxGeometry x="562.5" y="300" width="155" height="20" as="geometry" />
        </mxCell>
        <mxCell id="RUT8C2a_-3nLD0fSih08-66" value="Customer" style="rounded=1;align=center;fillColor=#d5e8d4;strokeColor=#82b366;html=1;whiteSpace=wrap;fontSize=16;gradientColor=#97d077;" vertex="1" parent="1">
          <mxGeometry x="561.25" y="420" width="157.5" height="20" as="geometry" />
        </mxCell>
        <mxCell id="RUT8C2a_-3nLD0fSih08-67" style="edgeStyle=orthogonalEdgeStyle;rounded=0;orthogonalLoop=1;jettySize=auto;html=1;exitX=0.5;exitY=1;exitDx=0;exitDy=0;" edge="1" parent="1" source="RUT8C2a_-3nLD0fSih08-49" target="RUT8C2a_-3nLD0fSih08-49">
          <mxGeometry relative="1" as="geometry" />
        </mxCell>
      </root>
    </mxGraphModel>
  </diagram>
</mxfile>
